<svg width="120" height="100" viewBox="0 0 120 100" fill="none" xmlns="http://www.w3.org/2000/svg">
    <g id="triangles" clip-path="url(#clip0)">
        <path id="purple1" opacity="0.75" d="M77.5 45.6699C80.8333 47.5944 80.8333 52.4056 77.5 54.3301L43 74.2487C39.6667 76.1732 35.5 73.7676 35.5 69.9186L35.5 30.0814C35.5 26.2324 39.6667 23.8268 43 25.7513L77.5 45.6699Z" fill="#9B51E0" />
        <g id="purpleGroup">
            <path id="purple2" opacity="0.75" d="M56.5 45.6699C59.8333 47.5944 59.8333 52.4056 56.5 54.3301L22 74.2487C18.6667 76.1732 14.5 73.7676 14.5 69.9186L14.5 30.0814C14.5 26.2324 18.6667 23.8268 22 25.7513L56.5 45.6699Z" fill="#9B51E0" />
        </g>
        <g id="blueGroup">
            <path id="blue1" opacity="0.75" d="M56.5 45.6699C59.8333 47.5944 59.8333 52.4056 56.5 54.3301L22 74.2487C18.6667 76.1732 14.5 73.7676 14.5 69.9186L14.5 30.0814C14.5 26.2324 18.6667 23.8268 22 25.7513L56.5 45.6699Z" fill="#56CCF2" />
        </g>
    </g>
    <defs>
        <clipPath id="clip0">
            <rect width="120" height="100" fill="white" />
        </clipPath>
    </defs>
</svg>
